<?xml version="1.0" encoding="UTF-8" standalone="no"?>
<!-- Created with Inkscape (http://www.inkscape.org/) -->

<svg
   xmlns:dc="http://purl.org/dc/elements/1.1/"
   xmlns:cc="http://creativecommons.org/ns#"
   xmlns:rdf="http://www.w3.org/1999/02/22-rdf-syntax-ns#"
   xmlns:svg="http://www.w3.org/2000/svg"
   xmlns="http://www.w3.org/2000/svg"
   xmlns:sodipodi="http://sodipodi.sourceforge.net/DTD/sodipodi-0.dtd"
   xmlns:inkscape="http://www.inkscape.org/namespaces/inkscape"
   width="192.87553mm"
   height="122.79224mm"
   viewBox="0 0 192.87553 122.79224"
   version="1.1"
   id="svg994"
   inkscape:version="0.92.2 (5c3e80d, 2017-08-06)"
   sodipodi:docname="somsa-sariq.svg">
  <defs
     id="defs988" />
  <sodipodi:namedview
     id="base"
     pagecolor="#ffffff"
     bordercolor="#666666"
     borderopacity="1.0"
     inkscape:pageopacity="0.0"
     inkscape:pageshadow="2"
     inkscape:zoom="0.24748738"
     inkscape:cx="-805.45172"
     inkscape:cy="-670.68124"
     inkscape:document-units="mm"
     inkscape:current-layer="layer2"
     showgrid="false"
     showborder="false"
     fit-margin-top="0"
     fit-margin-left="0"
     fit-margin-right="0"
     fit-margin-bottom="0"
     inkscape:window-width="1920"
     inkscape:window-height="1017"
     inkscape:window-x="-8"
     inkscape:window-y="-8"
     inkscape:window-maximized="1" />
  <metadata
     id="metadata991">
    <rdf:RDF>
      <cc:Work
         rdf:about="">
        <dc:format>image/svg+xml</dc:format>
        <dc:type
           rdf:resource="http://purl.org/dc/dcmitype/StillImage" />
        <dc:title></dc:title>
      </cc:Work>
    </rdf:RDF>
  </metadata>
  <g
     inkscape:groupmode="layer"
     id="layer2"
     inkscape:label="Layer 2"
     transform="translate(10.693452,-17.552963)">
    <path
       style="opacity:1;fill:#473c00;fill-opacity:0.16425123;stroke:none;stroke-width:4;stroke-miterlimit:4;stroke-dasharray:none;stroke-opacity:1"
       id="path1724"
       d="m 182.16524,115.45749 c -0.034,1.40306 0.11062,2.82192 -0.10206,4.20919 -0.89152,5.81504 -5.54792,10.75849 -10.34553,13.75685 -1.25548,0.78463 -2.63127,1.35789 -3.94691,2.03683 -4.49336,1.78535 -9.27876,2.05179 -14.03481,2.36464 -2.64662,0.17409 -2.81019,0.21947 -5.53554,0.50613 -4.51014,0.20153 -8.941,1.16202 -13.42662,1.60011 -3.80731,0.37184 -4.3204,0.27317 -8.12019,0.25496 -6.11105,0.4208 -12.11913,-0.0643 -18.17179,-0.63213 -0.98479,-0.0924 -1.96497,-0.23597 -2.95175,-0.30381 -3.77566,-0.12766 -1.92687,-0.0304 -5.546817,-0.28365 -6.621505,-0.57678 -13.240594,-1.15243 -19.888605,-1.25797 -1.454676,-0.13147 -2.910271,-0.25311 -4.364024,-0.39441 -0.657159,-0.0639 -7.890449,-0.81942 -8.685787,-0.91279 -3.070648,-0.36052 -5.089334,-0.58658 -8.078853,-1.3186 -1.025983,-0.25123 -2.022383,-0.61074 -3.033572,-0.91611 -2.213827,-0.65081 -4.237549,-1.72749 -6.234073,-2.85309 -0.699077,-0.39413 -0.839581,-0.75711 -1.067874,-0.0976 1.863023,0.0265 3.729751,-0.0409 5.589071,0.0795 0.378902,0.0245 -0.745466,0.14505 -1.119592,0.20986 -0.709848,0.12295 -1.412126,0.33009 -2.132169,0.35338 -6.515862,0.2108 -8.298825,0.295 -13.708573,-0.93752 -1.853726,-0.39972 -3.338433,-1.59647 -5.049716,-2.31755 -0.22603,-0.0952 -0.485796,-0.0879 -0.714089,-0.17754 -1.556377,-0.61143 -0.680902,-0.62528 -1.625626,-0.52889 -0.244277,0.23924 -0.385876,0.7612 -0.784352,0.81664 -1.314887,0.18295 -3.313138,-0.4487 -4.392921,-0.68909 -0.68346,-0.15216 -1.367178,-0.30316 -2.050768,-0.45474 -1.602314,-0.43362 -3.071845,-0.79276 -4.634327,-1.39462 -0.787963,-0.30352 -1.523345,-0.73297 -2.310447,-1.03871 -0.495633,-0.19253 -1.020255,-0.29995 -1.529496,-0.45289 -2.05092,-0.61596 -1.479401,-0.44874 -3.917481,-1.26425 -0.859595,-0.3857 -1.7152202,-0.78037 -2.5787864,-1.1571 -2.6046228,-1.13624 -2.5410593,-0.95471 -5.0505778,-2.41123 -7.5467777,-4.38015 1.9528751,0.96212 -4.3061197,-2.82132 -0.5444689,-0.32912 -1.1309507,-0.58312 -1.6964258,-0.87467 -5.9245928,-3.91629 1.7374924,1.20863 -3.3431059,-2.36227 -0.4598392,-0.3232 -1.0189128,-0.46539 -1.505227,-0.73244 -2.5163534,-1.3818 0.2303856,-0.0939 -1.9480734,-1.07506 -1.492498,-0.96968 12.2208195,-22.076785 13.7133172,-21.107109 v 0 c 0.4246849,0.1602 0.8493697,0.320397 1.2740545,0.480597 0.4080796,0.100584 0.8266636,0.165447 1.224239,0.301758 2.5638566,0.879022 4.9625003,2.235557 7.4728873,3.247017 1.93534,1.104558 3.899111,2.064781 5.891612,3.057313 1.226038,0.610732 2.411241,1.301467 3.639294,1.908135 0.484787,0.239489 0.992553,0.429339 1.488829,0.644009 4.018333,1.8109 -1.16433,-0.48393 3.765651,1.53763 1.811295,0.74273 3.573664,1.63254 5.453092,2.19442 2.465755,0.64487 -0.81111,-0.2111 1.684051,0.11028 1.913856,0.24651 3.805963,0.72734 5.633495,1.33579 5.195734,1.90343 -0.524568,-0.0303 2.200757,0.59658 0.483036,0.11111 0.93336,0.34667 1.419781,0.44188 0.960813,0.18807 2.008515,-0.34466 2.975504,-0.10717 0.656926,0.042 2.630215,0.077 1.972318,0.0991 -1.723988,0.0579 -3.458308,-0.0779 -5.173872,0.10187 -0.331369,0.0347 0.609677,0.2931 0.939274,0.34186 0.522919,0.0774 1.056904,0.0317 1.585513,0.0316 2.634892,-1.7e-4 5.26974,-0.0215 7.904609,-0.0323 1.145114,0.21098 2.347894,0.48213 3.521141,0.51898 2.548234,0.0801 4.902732,-1.2577 7.471796,-1.0951 1.224815,-0.0517 2.448558,-0.16246 3.674444,-0.15527 7.112989,0.0417 14.097415,1.64214 21.036287,3.01632 0.119518,0.0277 6.267784,1.45587 6.842342,1.58079 0.867005,0.1885 1.730531,0.40207 2.608621,0.52932 2.38822,0.34609 4.82751,0.22183 7.22938,0.23061 3.81797,-0.15668 1.88686,-0.11566 5.79341,-0.11789 2.0884,-0.0685 4.17184,-0.24547 6.2575,-0.3724 1.14461,-0.0697 4.40633,0.37771 3.43261,-0.22797 -1.10044,-0.68451 -2.59166,-0.0367 -3.88749,-0.055 1.21806,-0.0357 2.4356,-0.10299 3.65418,-0.10712 5.71126,-0.0193 11.41495,0.70105 17.13112,0.36528 4.69019,-0.11342 9.36988,-0.68825 14.06334,-0.5153 0.48297,0.0718 2.07003,0.16634 2.55418,0.67343 0.22735,0.23811 0.39327,1.6885 0.48434,1.91769 0.0834,0.20988 0.31432,0.33336 0.41511,0.53545 0.25139,0.5041 0.42216,1.04452 0.63325,1.56678 0,-1.72277 24.36364,-1.72277 24.36364,0 z"
       inkscape:connector-curvature="0" />
  </g>
  <g
     inkscape:label="Layer 1"
     inkscape:groupmode="layer"
     id="layer1"
     transform="translate(10.693452,-17.552963)">
    <path
       style="fill:#ffe443;fill-opacity:1;stroke:#fffb0c;stroke-width:10;stroke-linecap:butt;stroke-linejoin:miter;stroke-miterlimit:4;stroke-dasharray:none;stroke-opacity:1"
       d="M 95.627975,19.565476 C 57.074405,18.431547 -8.6934523,96.672618 -8.6934523,108.38988 c 0,11.71726 187.0982123,24.19047 186.7202323,9.4494 -0.37797,-14.74107 -64.25595,-97.895828 -82.398805,-98.273804 z"
       id="path1557"
       inkscape:connector-curvature="0" />
    <circle
       style="opacity:1;fill:#613f00;fill-opacity:1;stroke:none;stroke-width:4;stroke-miterlimit:4;stroke-dasharray:none;stroke-opacity:1"
       id="path1565"
       cx="63.5"
       cy="49.425594"
       r="1.8898809" />
    <circle
       style="opacity:1;fill:#613f00;fill-opacity:1;stroke:none;stroke-width:4;stroke-miterlimit:4;stroke-dasharray:none;stroke-opacity:1"
       id="path1565-8"
       cx="73.70536"
       cy="41.488094"
       r="1.8898809" />
    <circle
       style="opacity:1;fill:#613f00;fill-opacity:1;stroke:none;stroke-width:4;stroke-miterlimit:4;stroke-dasharray:none;stroke-opacity:1"
       id="path1565-2"
       cx="85.04464"
       cy="46.401787"
       r="1.8898809" />
    <circle
       style="opacity:1;fill:#613f00;fill-opacity:1;stroke:none;stroke-width:4;stroke-miterlimit:4;stroke-dasharray:none;stroke-opacity:1"
       id="path1565-6"
       cx="30.616072"
       cy="92.89286"
       r="1.8898809" />
    <circle
       style="opacity:1;fill:#613f00;fill-opacity:1;stroke:none;stroke-width:4;stroke-miterlimit:4;stroke-dasharray:none;stroke-opacity:1"
       id="path1565-7"
       cx="40.82143"
       cy="81.931549"
       r="1.8898809" />
    <circle
       style="opacity:1;fill:#613f00;fill-opacity:1;stroke:none;stroke-width:4;stroke-miterlimit:4;stroke-dasharray:none;stroke-opacity:1"
       id="path1565-9"
       cx="46.869049"
       cy="95.160713"
       r="1.8898809" />
    <circle
       style="opacity:1;fill:#613f00;fill-opacity:1;stroke:none;stroke-width:4;stroke-miterlimit:4;stroke-dasharray:none;stroke-opacity:1"
       id="path1565-86"
       cx="120.95238"
       cy="80.041664"
       r="1.8898809" />
    <circle
       style="opacity:1;fill:#613f00;fill-opacity:1;stroke:none;stroke-width:4;stroke-miterlimit:4;stroke-dasharray:none;stroke-opacity:1"
       id="path1565-63"
       cx="103.56548"
       cy="87.223213"
       r="1.8898809" />
    <circle
       style="opacity:1;fill:#613f00;fill-opacity:1;stroke:none;stroke-width:4;stroke-miterlimit:4;stroke-dasharray:none;stroke-opacity:1"
       id="path1565-91"
       cx="106.21131"
       cy="99.696426"
       r="1.8898809" />
    <circle
       style="opacity:1;fill:#613f00;fill-opacity:1;stroke:none;stroke-width:4;stroke-miterlimit:4;stroke-dasharray:none;stroke-opacity:1"
       id="path1565-93"
       cx="120.5744"
       cy="89.869049"
       r="1.8898809" />
    <circle
       style="opacity:1;fill:#613f00;fill-opacity:1;stroke:none;stroke-width:4;stroke-miterlimit:4;stroke-dasharray:none;stroke-opacity:1"
       id="path1565-0"
       cx="105.45536"
       cy="72.860123"
       r="1.8898809" />
  </g>
</svg>
